<?xml version="1.0" encoding="utf-8"?>
<!-- Generator: Adobe Illustrator 16.0.0, SVG Export Plug-In . SVG Version: 6.00 Build 0)  -->
<!DOCTYPE svg PUBLIC "-//W3C//DTD SVG 1.1//EN" "http://www.w3.org/Graphics/SVG/1.1/DTD/svg11.dtd">
<svg version="1.1" id="レイヤー_1" xmlns="http://www.w3.org/2000/svg" xmlns:xlink="http://www.w3.org/1999/xlink" x="0px"
	 y="0px" width="188px" height="121px" viewBox="0 0 188 121" enable-background="new 0 0 188 121" xml:space="preserve">
<g>
	<path fill-rule="evenodd" clip-rule="evenodd" fill="#FFFFFF" d="M188,71c-3.725,11.403-10.67,19.4-22.982,21.712
		c-0.815,0.153-1.64,0.283-2.466,0.349c-7.17,0.561-10.258-3.462-7.528-10.125c0.385-0.94,2.278-1.675,3.536-1.785
		c13.055-1.143,17.498-5.91,17.505-19.058c0.006-11.313,0.05-22.625-0.018-33.937c-0.056-9.405-6.803-16.604-15.496-16.702
		c-9.044-0.103-16.045,6.994-16.078,16.757c-0.096,28.613-0.027,57.227-0.058,85.841c-0.002,2.316-0.271,4.632-0.417,6.948
		c-3.667,0-7.333,0-11,0c-0.124-0.652-0.356-1.305-0.355-1.956c0.035-31.393-0.286-62.792,0.32-94.173
		C133.22,11.659,142.049,4.127,154,0c4.333,0,8.667,0,13,0c10.696,3.806,17.808,11.032,21,22C188,38.333,188,54.667,188,71z"/>
	<path fill-rule="evenodd" clip-rule="evenodd" fill="#FFFFFF" d="M34,0c16.353,6.703,21.435,14.274,21.435,31.945
		c0.001,18.646-0.161,37.296,0.107,55.939c0.07,4.846-2.063,5.312-5.982,5.332c-3.975,0.021-5.953-0.552-5.885-5.356
		c0.277-19.642,0.185-39.29,0.087-58.936c-0.06-11.972-9.719-19.772-20.473-16.756c-6.875,1.929-11.278,7.853-11.317,15.781
		c-0.092,18.813-0.007,37.627-0.051,56.44c-0.023,9.875,0.887,8.621-8.927,8.71C1.997,93.11,0.998,93.035,0,93
		c0-23.667,0-47.333,0-71C3.207,11.046,10.182,3.688,21,0C25.333,0,29.667,0,34,0z"/>
	<path fill-rule="evenodd" clip-rule="evenodd" fill="#FFFFFF" d="M101,0c4.648,3.1,10.107,5.45,13.791,9.441
		c10.542,11.423,9.275,29.55-2.397,41.647c-8.329,8.632-16.94,16.99-25.407,25.489c-1.114,1.118-2.12,2.345-4.021,4.462
		c13.587,0,25.976,0,39.209,0c0,3.505,0.232,6.45-0.126,9.322c-0.125,0.996-1.708,2.583-2.636,2.591
		c-17.617,0.155-35.236,0.114-53.084,0.114c-1.048-6.729-0.999-12.045,4.407-17.06c10.983-10.187,21.196-21.201,31.8-31.802
		c4.427-4.425,7.214-9.507,7.334-15.878c0.16-8.443-5.337-15.191-13.552-16.62c-7.749-1.347-15.049,3.385-17.63,11.426
		c-1.301,4.056-7.804,6.731-11.16,4.319c-0.836-0.602-1.105-2.626-0.932-3.9c1.37-10.032,6.894-17.083,15.916-21.49
		C83.992,1.341,85.503,0.686,87,0C91.667,0,96.333,0,101,0z"/>
</g>
</svg>
