<?xml version="1.0" encoding="utf-8"?>
<!-- Generator: Adobe Illustrator 16.0.0, SVG Export Plug-In . SVG Version: 6.00 Build 0)  -->
<!DOCTYPE svg PUBLIC "-//W3C//DTD SVG 1.1//EN" "http://www.w3.org/Graphics/SVG/1.1/DTD/svg11.dtd">
<svg version="1.1" id="instant_design_kit" xmlns="http://www.w3.org/2000/svg" xmlns:xlink="http://www.w3.org/1999/xlink" x="0px"
	 y="0px" width="87.084px" height="84.084px" viewBox="0 0 87.084 84.084" enable-background="new 0 0 87.084 84.084"
	 xml:space="preserve">
<path fill="#FFFFFF" d="M45.042,0C21.822,0,3,18.822,3,42.041c0,9.813,3.37,18.832,9.004,25.984
	c-3.682,5.021-7.907,8.706-11.537,10.532c-0.742,0.374-0.681,1.281,0.781,1.211c7.337-0.406,13.229-2.512,17.62-4.838
	c7.183,5.724,16.275,9.154,26.174,9.154c23.219,0,42.042-18.822,42.042-42.043C87.084,18.822,68.261,0,45.042,0z M49.946,65.77
	h-11.04V54.791h11.04V65.77z M48.926,51.61h-9l-1.56-33.118h12.119L48.926,51.61z"/>
</svg>
